<?xml version="1.0" standalone="no"?>
<!DOCTYPE svg PUBLIC "-//W3C//DTD SVG 20010904//EN"
 "http://www.w3.org/TR/2001/REC-SVG-20010904/DTD/svg10.dtd">
<svg version="1.0" xmlns="http://www.w3.org/2000/svg"
 width="1000.000000pt" height="671.000000pt" viewBox="0 0 1000.000000 671.000000"
 preserveAspectRatio="xMidYMid meet">

<g transform="translate(0.000000,671.000000) scale(0.100000,-0.100000)"
fill="#000000" stroke="none">
<path d="M4505 4480 c-88 -7 -254 -36 -263 -45 -4 -4 63 -43 140 -81 32 -16
58 -32 58 -35 0 -4 -64 -9 -142 -13 -79 -4 -162 -9 -184 -12 l-42 -6 79 -128
79 -127 28 -162 27 -161 31 0 c35 0 35 -1 50 188 8 95 -4 89 144 72 421 -48
515 -58 518 -55 2 2 -4 17 -13 34 -8 17 -14 31 -13 31 2 0 39 -14 82 -30 80
-31 91 -31 98 5 3 18 11 20 78 17 40 -1 75 -4 76 -5 3 -2 34 -240 34 -254 0
-2 9 -3 20 -3 23 0 23 2 7 -70 -7 -30 -10 -68 -7 -85 6 -32 8 -26 67 270 34
169 38 360 9 417 -60 122 -214 189 -521 227 -121 15 -328 20 -440 11z"/>
<path d="M7038 4093 c7 -3 16 -2 19 1 4 3 -2 6 -13 5 -11 0 -14 -3 -6 -6z"/>
<path d="M4310 3316 c0 -10 54 -215 79 -295 l16 -54 219 -94 c120 -51 226 -93
234 -93 8 0 81 35 162 78 82 44 177 94 212 112 l65 33 51 155 c28 85 48 152
45 148 -3 -3 -36 -61 -72 -127 l-66 -122 -193 -105 -193 -104 -57 25 c-31 14
-124 56 -207 94 l-150 68 -72 145 c-40 80 -72 141 -73 136z"/>
<path d="M4737 3183 c-43 -25 -77 -47 -75 -49 4 -4 180 17 186 22 6 4 -19 74
-26 73 -4 0 -42 -21 -85 -46z"/>
<path d="M4866 3199 c-3 -17 -6 -35 -6 -39 0 -4 28 -10 63 -14 34 -4 78 -9 97
-12 30 -5 22 2 -50 45 -47 28 -88 51 -91 51 -4 0 -9 -14 -13 -31z"/>
<path d="M6796 3124 c-38 -7 -70 -15 -73 -17 -2 -2 14 -24 36 -48 21 -24 48
-55 59 -69 24 -29 31 -25 37 21 3 19 9 50 15 69 12 41 13 60 3 59 -5 0 -39 -7
-77 -15z"/>
<path d="M4826 3008 c4 -13 11 -34 16 -48 10 -25 10 -25 28 15 25 54 25 55
-16 55 -32 0 -35 -2 -28 -22z"/>
<path d="M8740 1898 l0 -968 175 0 175 0 0 965 0 964 -175 3 -175 3 0 -967z
m280 532 l0 -330 -110 0 -110 0 0 330 0 330 110 0 110 0 0 -330z m-62 -1250
c52 -49 7 -139 -62 -125 -56 12 -86 76 -53 117 26 33 84 37 115 8z"/>
<path d="M8924 2390 c0 -91 2 -128 3 -82 2 45 2 119 0 165 -1 45 -3 8 -3 -83z"/>
<path d="M8922 2195 c0 -16 2 -22 5 -12 2 9 2 23 0 30 -3 6 -5 -1 -5 -18z"/>
<path d="M4535 2653 c-228 -30 -418 -74 -506 -118 -25 -13 -50 -29 -56 -37
-10 -12 -133 -248 -133 -255 0 -2 121 -3 269 -3 l269 0 33 45 c19 24 37 45 41
45 4 0 21 -20 39 -45 32 -44 33 -45 89 -45 55 0 56 0 94 50 l38 50 37 -50 c36
-49 37 -50 91 -50 53 1 56 2 89 45 18 25 36 45 40 45 4 0 15 -13 24 -30 31
-53 45 -60 106 -60 51 0 60 3 77 26 54 74 47 73 85 21 l34 -46 257 -1 257 0
-28 63 c-15 34 -40 94 -55 133 l-27 71 -67 31 c-108 49 -251 84 -455 111 -129
18 -115 26 -193 -114 l-69 -124 -50 -1 -50 0 -65 101 c-98 153 -95 149 -143
148 -23 -1 -55 -4 -72 -6z"/>
<path d="M7745 2195 c0 -247 1 -347 2 -222 2 126 2 328 0 450 -1 122 -2 20 -2
-228z"/>
<path d="M7795 2195 c0 -247 1 -347 2 -222 2 126 2 328 0 450 -1 122 -2 20 -2
-228z"/>
<path d="M1405 2528 c-11 -29 -10 -54 18 -253 48 -336 45 -325 74 -325 22 0
24 3 19 28 -3 15 -19 131 -36 257 -37 272 -35 265 -54 290 -13 19 -15 19 -21
3z"/>
<path d="M1576 2518 c-9 -35 -8 -38 19 -38 29 0 29 0 13 35 -14 31 -24 32 -32
3z"/>
<path d="M7126 2515 c-28 -26 -33 -59 -14 -99 11 -27 40 -42 58 -31 5 3 10 2
10 -4 0 -7 8 -7 24 1 50 22 58 111 13 143 -31 22 -60 19 -91 -10z"/>
<path d="M1917 2481 c-15 -26 -15 -29 -1 -35 27 -10 34 -7 34 17 0 41 -15 49
-33 18z"/>
<path d="M1681 2449 c-14 -41 -15 -39 15 -39 24 0 25 3 19 28 -10 42 -22 46
-34 11z"/>
<path d="M5930 1830 c0 -36 -7 -233 -15 -439 -16 -408 -15 -403 -78 -441 l-32
-20 100 0 c55 0 117 5 139 11 56 15 121 79 136 135 25 87 -2 235 -69 384 -22
47 -67 159 -102 250 -34 91 -66 169 -71 175 -4 5 -8 -20 -8 -55z"/>
<path d="M3491 1523 c-108 -215 -133 -287 -134 -383 -2 -108 28 -156 120 -190
64 -24 239 -30 194 -7 -13 6 -33 24 -44 39 -19 25 -21 54 -33 364 -8 185 -15
338 -17 340 -1 2 -40 -72 -86 -163z"/>
<path d="M4655 1623 c-11 -2 -37 -11 -57 -20 -53 -23 -50 -47 10 -70 71 -27
291 -26 347 2 97 49 13 95 -170 93 -60 0 -119 -2 -130 -5z m258 -24 c35 -16
32 -39 -8 -59 -41 -20 -209 -20 -250 0 -55 28 -40 54 40 74 36 9 189 -1 218
-15z"/>
<path d="M2698 1459 c-10 -10 -18 -26 -18 -34 0 -13 31 -15 215 -15 184 0 215
2 215 15 0 8 -9 24 -20 35 -19 19 -33 20 -197 19 -162 -1 -180 -2 -195 -20z"/>
<path d="M1000 1400 l0 -40 735 0 c645 0 735 2 735 15 0 13 -89 15 -715 17
-466 2 -716 6 -718 13 -1 7 243 11 716 13 466 1 717 6 717 12 0 7 -255 10
-735 10 l-735 0 0 -40z"/>
<path d="M1228 1343 c12 -2 30 -2 40 0 9 3 -1 5 -23 4 -22 0 -30 -2 -17 -4z"/>
<path d="M1101 1314 c0 -11 3 -14 6 -6 3 7 2 16 -1 19 -3 4 -6 -2 -5 -13z"/>
<path d="M1122 1310 c0 -14 2 -19 5 -12 2 6 2 18 0 25 -3 6 -5 1 -5 -13z"/>
<path d="M1102 1250 c0 -19 2 -27 5 -17 2 9 2 25 0 35 -3 9 -5 1 -5 -18z"/>
<path d="M1121 1254 c0 -11 3 -14 6 -6 3 7 2 16 -1 19 -3 4 -6 -2 -5 -13z"/>
<path d="M2860 1228 c-11 -12 -20 -28 -20 -35 0 -17 36 -53 54 -53 37 0 62 65
34 87 -28 22 -48 22 -68 1z"/>
<path d="M1133 1223 c9 -2 25 -2 35 0 9 3 1 5 -18 5 -19 0 -27 -2 -17 -5z"/>
<path d="M1223 1223 c15 -2 37 -2 50 0 12 2 0 4 -28 4 -27 0 -38 -2 -22 -4z"/>
<path d="M2198 1223 c23 -2 61 -2 85 0 23 2 4 4 -43 4 -47 0 -66 -2 -42 -4z"/>
<path d="M6780 1019 c-74 -44 -138 -84 -142 -87 -4 -4 146 -6 334 -4 187 1
339 4 337 6 -2 2 -59 41 -126 85 l-121 81 -74 0 -74 0 -134 -81z"/>
<path d="M3960 429 c0 -5 5 -7 10 -4 6 3 10 8 10 11 0 2 -4 4 -10 4 -5 0 -10
-5 -10 -11z"/>
<path d="M4008 433 c21 -4 22 -9 22 -81 0 -42 -7 -122 -15 -177 -8 -55 -15
-117 -15 -137 l0 -38 816 0 816 0 -9 142 c-4 79 -7 178 -5 221 l2 77 -817 -1
c-450 -1 -808 -4 -795 -6z"/>
</g>
</svg>
